# xmcd
#
# Track frame offsets:
# 150
# 35890
# 68752
# 95401
# 126862
# 153603
# 184683
# 219266
# 240967
# 263154
# 279311
# 304376
#
# Disc length: 4431 seconds
#
# Revision: 0
# Processed by: cddbd v1.4PL0 Copyright (c) Steve Scherf et al.
# Submitted via: Audion 3.0.2 (http://www.panic.com/audion/)
#
DISCID=a7114d0c
DTITLE=James Patterson - 2nd Chance Disk 2
DYEAR=1900
DGENRE=
TTITLE0=Chapter 12
TTITLE1=Chapter 13
TTITLE2=Chapter 14
TTITLE3=Chapter 15
TTITLE4=Chapter 16
TTITLE5=Chapter 17
TTITLE6=Chapter 18
TTITLE7=Chapter 19
TTITLE8=Chapter 20
TTITLE9=Chapter 21
TTITLE10=Chapter 22
TTITLE11=Chapter 23
EXTD=
EXTT0=
EXTT1=
EXTT2=
EXTT3=
EXTT4=
EXTT5=
EXTT6=
EXTT7=
EXTT8=
EXTT9=
EXTT10=
EXTT11=
PLAYORDER=
